<svg width="108" height="74" viewBox="0 0 108 74" fill="none" xmlns="http://www.w3.org/2000/svg">
<g filter="url(#filter0_d_42_5427)">
<rect x="20" y="21" width="67" height="32" rx="10" fill="#61C3F2" shape-rendering="crispEdges"/>
<path d="M42.516 33.704H38.628V35.756C38.796 35.548 39.036 35.38 39.348 35.252C39.66 35.116 39.992 35.048 40.344 35.048C40.984 35.048 41.508 35.188 41.916 35.468C42.324 35.748 42.62 36.108 42.804 36.548C42.988 36.98 43.08 37.444 43.08 37.94C43.08 38.86 42.816 39.6 42.288 40.16C41.768 40.72 41.024 41 40.056 41C39.144 41 38.416 40.772 37.872 40.316C37.328 39.86 37.02 39.264 36.948 38.528H38.58C38.652 38.848 38.812 39.104 39.06 39.296C39.316 39.488 39.64 39.584 40.032 39.584C40.504 39.584 40.86 39.436 41.1 39.14C41.34 38.844 41.46 38.452 41.46 37.964C41.46 37.468 41.336 37.092 41.088 36.836C40.848 36.572 40.492 36.44 40.02 36.44C39.684 36.44 39.404 36.524 39.18 36.692C38.956 36.86 38.796 37.084 38.7 37.364H37.092V32.228H42.516V33.704ZM56.542 32.624V41H54.862V35.552L52.618 41H51.346L49.09 35.552V41H47.41V32.624H49.318L51.982 38.852L54.646 32.624H56.542ZM57.771 37.652C57.771 36.98 57.903 36.384 58.167 35.864C58.439 35.344 58.803 34.944 59.259 34.664C59.723 34.384 60.239 34.244 60.807 34.244C61.303 34.244 61.735 34.344 62.103 34.544C62.479 34.744 62.779 34.996 63.003 35.3V34.352H64.695V41H63.003V40.028C62.787 40.34 62.487 40.6 62.103 40.808C61.727 41.008 61.291 41.108 60.795 41.108C60.235 41.108 59.723 40.964 59.259 40.676C58.803 40.388 58.439 39.984 58.167 39.464C57.903 38.936 57.771 38.332 57.771 37.652ZM63.003 37.676C63.003 37.268 62.923 36.92 62.763 36.632C62.603 36.336 62.387 36.112 62.115 35.96C61.843 35.8 61.551 35.72 61.239 35.72C60.927 35.72 60.639 35.796 60.375 35.948C60.111 36.1 59.895 36.324 59.727 36.62C59.567 36.908 59.487 37.252 59.487 37.652C59.487 38.052 59.567 38.404 59.727 38.708C59.895 39.004 60.111 39.232 60.375 39.392C60.647 39.552 60.935 39.632 61.239 39.632C61.551 39.632 61.843 39.556 62.115 39.404C62.387 39.244 62.603 39.02 62.763 38.732C62.923 38.436 63.003 38.084 63.003 37.676ZM68.0158 35.384C68.2318 35.032 68.5118 34.756 68.8558 34.556C69.2078 34.356 69.6078 34.256 70.0558 34.256V36.02H69.6118C69.0838 36.02 68.6838 36.144 68.4118 36.392C68.1478 36.64 68.0158 37.072 68.0158 37.688V41H66.3358V34.352H68.0158V35.384Z" fill="white"/>
</g>
<defs>
<filter id="filter0_d_42_5427" x="-1" y="0" width="109" height="74" filterUnits="userSpaceOnUse" color-interpolation-filters="sRGB">
<feFlood flood-opacity="0" result="BackgroundImageFix"/>
<feColorMatrix in="SourceAlpha" type="matrix" values="0 0 0 0 0 0 0 0 0 0 0 0 0 0 0 0 0 0 127 0" result="hardAlpha"/>
<feOffset/>
<feGaussianBlur stdDeviation="10.5"/>
<feComposite in2="hardAlpha" operator="out"/>
<feColorMatrix type="matrix" values="0 0 0 0 0.136825 0 0 0 0 0.666609 0 0 0 0 0.920689 0 0 0 0.27 0"/>
<feBlend mode="normal" in2="BackgroundImageFix" result="effect1_dropShadow_42_5427"/>
<feBlend mode="normal" in="SourceGraphic" in2="effect1_dropShadow_42_5427" result="shape"/>
</filter>
</defs>
</svg>
