<svg width="16" height="16" viewBox="0 0 16 16" fill="none" xmlns="http://www.w3.org/2000/svg">
<g clip-path="url(#clip0_3_31)">
<path d="M13 6C14.6569 6 16 4.65685 16 3C16 1.34315 14.6569 0 13 0C11.3431 0 10 1.34315 10 3C10 4.65685 11.3431 6 13 6Z" fill="#827D88"/>
<path d="M13 16C14.6569 16 16 14.6569 16 13C16 11.3431 14.6569 10 13 10C11.3431 10 10 11.3431 10 13C10 14.6569 11.3431 16 13 16Z" fill="#827D88"/>
<path d="M3 16C4.65685 16 6 14.6569 6 13C6 11.3431 4.65685 10 3 10C1.34315 10 0 11.3431 0 13C0 14.6569 1.34315 16 3 16Z" fill="#827D88"/>
<path d="M3 6C4.65685 6 6 4.65685 6 3C6 1.34315 4.65685 0 3 0C1.34315 0 0 1.34315 0 3C0 4.65685 1.34315 6 3 6Z" fill="#827D88"/>
</g>
<defs>
<clipPath id="clip0_3_31">
<rect width="16" height="16" fill="white"/>
</clipPath>
</defs>
</svg>
