<svg width="18" height="18" viewBox="0 0 18 18" fill="none" xmlns="http://www.w3.org/2000/svg">
<g clip-path="url(#clip0_3_23)">
<path d="M17.0526 3.47369H0.947368C0.424151 3.47369 0 3.89785 0 4.42106V17.0526C0 17.5758 0.424151 18 0.947368 18H17.0526C17.5758 18 18 17.5758 18 17.0526V4.42106C18 3.89785 17.5758 3.47369 17.0526 3.47369Z" fill="#827D88"/>
<path d="M16.1052 1.57892C16.6104 1.57892 16.7367 2.10523 16.7367 2.36839H0.947266C0.947266 1.73681 1.36832 1.57892 1.57884 1.57892H16.1052Z" fill="#827D88"/>
<path d="M15.2462 0C15.6808 0 15.7894 0.421053 15.7894 0.631579H2.21045C2.21045 0.126316 2.57255 0 2.75361 0H15.2462Z" fill="#827D88"/>
</g>
<defs>
<clipPath id="clip0_3_23">
<rect width="18" height="18" fill="white"/>
</clipPath>
</defs>
</svg>
