<svg width="18" height="17" viewBox="0 0 18 17" fill="none" xmlns="http://www.w3.org/2000/svg">
<path d="M15.012 0H2C0.89543 0 0 0.89543 0 2V10.759C0 11.8636 0.89543 12.759 2 12.759H15.012C16.1166 12.759 17.012 11.8636 17.012 10.759V2C17.012 0.89543 16.1166 0 15.012 0Z" fill="#A6A6A6"/>
<path d="M13.1843 13.6094H3.82766C3.123 13.6094 2.55176 14.1806 2.55176 14.8853C2.55176 15.59 3.123 16.1612 3.82766 16.1612H13.1843C13.8889 16.1612 14.4602 15.59 14.4602 14.8853C14.4602 14.1806 13.8889 13.6094 13.1843 13.6094Z" fill="#A6A6A6"/>
</svg>
