<svg width="14" height="154" viewBox="0 0 14 154" fill="none" xmlns="http://www.w3.org/2000/svg">
<g filter="url(#filter0_d_2_20)">
<path d="M5.82425 2.53835V1.68276H7.31481V5.61093H6.35698V2.53835H5.82425Z" fill="#202C43"/>
</g>
<g filter="url(#filter1_d_2_20)">
<path d="M5.36337 21.0169C5.48534 20.9201 5.54095 20.8752 5.53018 20.8824C5.88175 20.5918 6.15797 20.3533 6.35887 20.1667C6.56335 19.9802 6.73554 19.7847 6.87545 19.5802C7.01535 19.3757 7.08531 19.1766 7.08531 18.9829C7.08531 18.8358 7.05123 18.721 6.98307 18.6385C6.91491 18.556 6.81267 18.5147 6.67635 18.5147C6.54003 18.5147 6.43241 18.5667 6.35348 18.6708C6.27815 18.7712 6.24048 18.9147 6.24048 19.1013H5.35261C5.35978 18.7963 5.42436 18.5416 5.54633 18.3372C5.67188 18.1327 5.83511 17.982 6.036 17.8851C6.24048 17.7883 6.46649 17.7399 6.71402 17.7399C7.14091 17.7399 7.46198 17.8493 7.67722 18.0681C7.89605 18.2869 8.00547 18.5721 8.00547 18.9237C8.00547 19.3075 7.87453 19.6645 7.61265 19.9945C7.35077 20.321 7.01715 20.6402 6.61178 20.9523H8.06466V21.7003H5.36337V21.0169Z" fill="#202C43"/>
</g>
<g filter="url(#filter2_d_2_20)">
<path d="M5.33598 34.2704C5.35033 33.8866 5.47589 33.5906 5.71266 33.3826C5.94942 33.1745 6.27049 33.0705 6.67586 33.0705C6.94492 33.0705 7.17451 33.1171 7.36464 33.2104C7.55836 33.3036 7.70365 33.431 7.80051 33.5924C7.90095 33.7539 7.95117 33.935 7.95117 34.1359C7.95117 34.3727 7.89198 34.5664 7.7736 34.7171C7.65522 34.8642 7.5171 34.9646 7.35926 35.0184V35.0399C7.56374 35.1081 7.72517 35.2211 7.84355 35.3789C7.96194 35.5368 8.02113 35.7395 8.02113 35.987C8.02113 36.2094 7.96911 36.4067 7.86508 36.5789C7.76463 36.7475 7.61576 36.8803 7.41845 36.9771C7.22473 37.074 6.99335 37.1224 6.72429 37.1224C6.29381 37.1224 5.94942 37.0166 5.69113 36.8049C5.43643 36.5933 5.3019 36.274 5.28755 35.8471H6.18081C6.1844 36.0049 6.22924 36.1305 6.31533 36.2238C6.40143 36.3135 6.52699 36.3583 6.69201 36.3583C6.83192 36.3583 6.93954 36.3188 7.01487 36.2399C7.09379 36.1574 7.13325 36.0498 7.13325 35.917C7.13325 35.7449 7.07765 35.6211 6.96644 35.5458C6.85882 35.4668 6.68483 35.4274 6.44448 35.4274H6.27229V34.6794H6.44448C6.62744 34.6794 6.77452 34.6489 6.88573 34.5879C7.00052 34.5234 7.05792 34.4104 7.05792 34.2489C7.05792 34.1198 7.02205 34.0193 6.9503 33.9476C6.87855 33.8758 6.7799 33.84 6.65434 33.84C6.51802 33.84 6.41578 33.8812 6.34762 33.9637C6.28305 34.0462 6.24538 34.1485 6.23462 34.2704H5.33598Z" fill="#202C43"/>
</g>
<g filter="url(#filter3_d_2_20)">
<path d="M5.13341 51.1885V50.4459L6.83383 48.0136H7.86161V50.3921H8.30286V51.1885H7.86161V51.888H6.94145V51.1885H5.13341ZM7.00602 49.0253L6.102 50.3921H7.00602V49.0253Z" fill="#202C43"/>
</g>
<g filter="url(#filter4_d_2_20)">
<path d="M7.94869 64.0976H6.26981V64.8402C6.34155 64.7613 6.442 64.6967 6.57114 64.6465C6.70029 64.5963 6.8402 64.5711 6.99087 64.5711C7.25992 64.5711 7.48234 64.6321 7.65812 64.7541C7.83749 64.8761 7.96842 65.0339 8.05093 65.2276C8.13344 65.4213 8.1747 65.6312 8.1747 65.8572C8.1747 66.2769 8.05632 66.6106 7.81955 66.8581C7.58278 67.102 7.24916 67.224 6.81867 67.224C6.53168 67.224 6.28236 67.1756 6.07071 67.0787C5.85905 66.9783 5.69583 66.8402 5.58103 66.6644C5.46623 66.4886 5.40346 66.2859 5.39269 66.0563H6.29133C6.31285 66.1675 6.36487 66.2608 6.44738 66.3361C6.52989 66.4079 6.64289 66.4437 6.78639 66.4437C6.95499 66.4437 7.08055 66.3899 7.16306 66.2823C7.24557 66.1747 7.28682 66.0312 7.28682 65.8518C7.28682 65.676 7.24378 65.5415 7.15768 65.4483C7.07158 65.355 6.94602 65.3083 6.78101 65.3083C6.65903 65.3083 6.55859 65.3388 6.47967 65.3998C6.40074 65.4572 6.34873 65.5343 6.32362 65.6312H5.43574V63.2904H7.94869V64.0976Z" fill="#202C43"/>
</g>
<g filter="url(#filter5_d_2_20)">
<path d="M7.16218 79.6919C7.13348 79.5592 7.08326 79.4605 7.01151 79.3959C6.93976 79.3278 6.83752 79.2937 6.70479 79.2937C6.50031 79.2937 6.35323 79.3834 6.26354 79.5628C6.17386 79.7385 6.12722 80.0183 6.12363 80.4022C6.20256 80.2766 6.31556 80.178 6.46264 80.1062C6.61331 80.0345 6.77833 79.9986 6.9577 79.9986C7.30926 79.9986 7.59087 80.1098 7.80252 80.3322C8.01777 80.5547 8.12539 80.865 8.12539 81.2632C8.12539 81.525 8.07158 81.7546 7.96395 81.9519C7.85992 82.1492 7.70566 82.3035 7.50118 82.4147C7.30029 82.5259 7.06173 82.5815 6.7855 82.5815C6.23305 82.5815 5.8492 82.4093 5.63396 82.0649C5.41872 81.717 5.31109 81.2183 5.31109 80.569C5.31109 79.8874 5.4241 79.3816 5.6501 79.0516C5.87969 78.7179 6.2456 78.5511 6.74784 78.5511C7.01689 78.5511 7.24289 78.6049 7.42585 78.7125C7.61239 78.8166 7.7523 78.9547 7.84557 79.1269C7.94243 79.2991 7.99983 79.4874 8.01777 79.6919H7.16218ZM6.73707 80.7251C6.58282 80.7251 6.45367 80.7717 6.34964 80.865C6.24919 80.9546 6.19897 81.0838 6.19897 81.2524C6.19897 81.4246 6.2456 81.5591 6.33888 81.656C6.43574 81.7528 6.57206 81.8013 6.74784 81.8013C6.90568 81.8013 7.02944 81.7546 7.11913 81.6614C7.2124 81.5645 7.25904 81.4336 7.25904 81.2685C7.25904 81.0999 7.21419 80.9672 7.12451 80.8703C7.03483 80.7735 6.90568 80.7251 6.73707 80.7251Z" fill="#202C43"/>
</g>
<g filter="url(#filter6_d_2_20)">
<path d="M8.00044 95.7328L6.6498 98.9722H5.70812L7.0749 95.8351H5.4014V95.0494H8.00044V95.7328Z" fill="#202C43"/>
</g>
<g filter="url(#filter7_d_2_20)">
<path d="M5.83381 112.199C5.4966 112.019 5.32799 111.738 5.32799 111.354C5.32799 111.16 5.37822 110.985 5.47866 110.827C5.57911 110.665 5.73157 110.538 5.93605 110.445C6.14053 110.348 6.39165 110.299 6.6894 110.299C6.98715 110.299 7.23648 110.348 7.43737 110.445C7.64185 110.538 7.79431 110.665 7.89476 110.827C7.9952 110.985 8.04543 111.16 8.04543 111.354C8.04543 111.548 7.99879 111.716 7.90552 111.86C7.81584 112.003 7.69387 112.116 7.53961 112.199C7.73333 112.292 7.8822 112.421 7.98624 112.586C8.09027 112.748 8.14229 112.938 8.14229 113.157C8.14229 113.411 8.07771 113.632 7.94857 113.819C7.81942 114.002 7.64364 114.141 7.42122 114.238C7.2024 114.335 6.95845 114.384 6.6894 114.384C6.42035 114.384 6.17461 114.335 5.9522 114.238C5.73337 114.141 5.55938 114.002 5.43023 113.819C5.30109 113.632 5.23652 113.411 5.23652 113.157C5.23652 112.934 5.28853 112.742 5.39257 112.581C5.4966 112.416 5.64368 112.289 5.83381 112.199ZM7.15217 111.494C7.15217 111.347 7.10912 111.234 7.02303 111.155C6.94052 111.072 6.82931 111.031 6.6894 111.031C6.54949 111.031 6.43649 111.072 6.3504 111.155C6.26789 111.237 6.22663 111.352 6.22663 111.499C6.22663 111.639 6.26968 111.75 6.35578 111.833C6.44187 111.912 6.55308 111.951 6.6894 111.951C6.82572 111.951 6.93693 111.91 7.02303 111.828C7.10912 111.745 7.15217 111.634 7.15217 111.494ZM6.6894 112.597C6.5208 112.597 6.38448 112.644 6.28044 112.737C6.17641 112.827 6.12439 112.952 6.12439 113.114C6.12439 113.264 6.17461 113.388 6.27506 113.485C6.37909 113.582 6.51721 113.63 6.6894 113.63C6.8616 113.63 6.99612 113.582 7.09298 113.485C7.19343 113.388 7.24365 113.264 7.24365 113.114C7.24365 112.956 7.19163 112.83 7.0876 112.737C6.98715 112.644 6.85442 112.597 6.6894 112.597Z" fill="#202C43"/>
</g>
<g filter="url(#filter8_d_2_20)">
<path d="M6.26754 128.762C6.32135 129.045 6.48636 129.187 6.76259 129.187C6.95272 129.187 7.08725 129.103 7.16617 128.934C7.24509 128.765 7.28455 128.491 7.28455 128.111C7.20563 128.222 7.09801 128.308 6.96169 128.369C6.82537 128.43 6.67291 128.46 6.5043 128.46C6.27471 128.46 6.07023 128.414 5.89086 128.321C5.71149 128.224 5.56979 128.082 5.46576 127.895C5.36531 127.705 5.31509 127.476 5.31509 127.207C5.31509 126.941 5.3689 126.71 5.47652 126.513C5.58773 126.315 5.74378 126.163 5.94467 126.055C6.14915 125.947 6.38951 125.894 6.66573 125.894C7.19666 125.894 7.56796 126.059 7.77961 126.389C7.99127 126.719 8.09709 127.205 8.09709 127.847C8.09709 128.313 8.05405 128.699 7.96795 129.004C7.88544 129.305 7.74374 129.535 7.54285 129.693C7.34554 129.851 7.07469 129.929 6.73031 129.929C6.45767 129.929 6.22449 129.876 6.03077 129.768C5.84064 129.66 5.69356 129.519 5.58952 129.343C5.48908 129.167 5.43168 128.973 5.41733 128.762H6.26754ZM6.71416 127.734C6.86483 127.734 6.98501 127.689 7.07469 127.599C7.16438 127.506 7.20922 127.381 7.20922 127.223C7.20922 127.051 7.16258 126.918 7.06931 126.825C6.97604 126.731 6.85048 126.685 6.69264 126.685C6.53479 126.685 6.40924 126.733 6.31596 126.83C6.22628 126.923 6.18144 127.052 6.18144 127.217C6.18144 127.372 6.22628 127.497 6.31596 127.594C6.40924 127.687 6.54197 127.734 6.71416 127.734Z" fill="#202C43"/>
</g>
<g filter="url(#filter9_d_2_20)">
<path d="M4.37856 142.177V141.321H5.86912V145.249H4.91129V142.177H4.37856ZM6.49857 143.231C6.49857 142.614 6.61696 142.128 6.85372 141.773C7.09408 141.418 7.47972 141.24 8.01065 141.24C8.54158 141.24 8.92543 141.418 9.1622 141.773C9.40255 142.128 9.52273 142.614 9.52273 143.231C9.52273 143.856 9.40255 144.345 9.1622 144.7C8.92543 145.056 8.54158 145.233 8.01065 145.233C7.47972 145.233 7.09408 145.056 6.85372 144.7C6.61696 144.345 6.49857 143.856 6.49857 143.231ZM8.61871 143.231C8.61871 142.869 8.57925 142.591 8.50033 142.397C8.4214 142.2 8.25818 142.101 8.01065 142.101C7.76312 142.101 7.5999 142.2 7.52097 142.397C7.44205 142.591 7.40259 142.869 7.40259 143.231C7.40259 143.475 7.41694 143.678 7.44564 143.839C7.47434 143.997 7.53174 144.126 7.61783 144.227C7.70752 144.324 7.83846 144.372 8.01065 144.372C8.18284 144.372 8.31199 144.324 8.39809 144.227C8.48777 144.126 8.54696 143.997 8.57566 143.839C8.60436 143.678 8.61871 143.475 8.61871 143.231Z" fill="#202C43"/>
</g>
<defs>
<filter id="filter0_d_2_20" x="1.82425" y="1.68277" width="9.49055" height="11.9282" filterUnits="userSpaceOnUse" color-interpolation-filters="sRGB">
<feFlood flood-opacity="0" result="BackgroundImageFix"/>
<feColorMatrix in="SourceAlpha" type="matrix" values="0 0 0 0 0 0 0 0 0 0 0 0 0 0 0 0 0 0 127 0" result="hardAlpha"/>
<feOffset dy="4"/>
<feGaussianBlur stdDeviation="2"/>
<feComposite in2="hardAlpha" operator="out"/>
<feColorMatrix type="matrix" values="0 0 0 0 0 0 0 0 0 0 0 0 0 0 0 0 0 0 0.25 0"/>
<feBlend mode="normal" in2="BackgroundImageFix" result="effect1_dropShadow_2_20"/>
<feBlend mode="normal" in="SourceGraphic" in2="effect1_dropShadow_2_20" result="shape"/>
</filter>
<filter id="filter1_d_2_20" x="1.35262" y="17.7399" width="10.7121" height="11.9604" filterUnits="userSpaceOnUse" color-interpolation-filters="sRGB">
<feFlood flood-opacity="0" result="BackgroundImageFix"/>
<feColorMatrix in="SourceAlpha" type="matrix" values="0 0 0 0 0 0 0 0 0 0 0 0 0 0 0 0 0 0 127 0" result="hardAlpha"/>
<feOffset dy="4"/>
<feGaussianBlur stdDeviation="2"/>
<feComposite in2="hardAlpha" operator="out"/>
<feColorMatrix type="matrix" values="0 0 0 0 0 0 0 0 0 0 0 0 0 0 0 0 0 0 0.25 0"/>
<feBlend mode="normal" in2="BackgroundImageFix" result="effect1_dropShadow_2_20"/>
<feBlend mode="normal" in="SourceGraphic" in2="effect1_dropShadow_2_20" result="shape"/>
</filter>
<filter id="filter2_d_2_20" x="1.28755" y="33.0705" width="10.7336" height="12.0519" filterUnits="userSpaceOnUse" color-interpolation-filters="sRGB">
<feFlood flood-opacity="0" result="BackgroundImageFix"/>
<feColorMatrix in="SourceAlpha" type="matrix" values="0 0 0 0 0 0 0 0 0 0 0 0 0 0 0 0 0 0 127 0" result="hardAlpha"/>
<feOffset dy="4"/>
<feGaussianBlur stdDeviation="2"/>
<feComposite in2="hardAlpha" operator="out"/>
<feColorMatrix type="matrix" values="0 0 0 0 0 0 0 0 0 0 0 0 0 0 0 0 0 0 0.25 0"/>
<feBlend mode="normal" in2="BackgroundImageFix" result="effect1_dropShadow_2_20"/>
<feBlend mode="normal" in="SourceGraphic" in2="effect1_dropShadow_2_20" result="shape"/>
</filter>
<filter id="filter3_d_2_20" x="1.13341" y="48.0136" width="11.1694" height="11.8744" filterUnits="userSpaceOnUse" color-interpolation-filters="sRGB">
<feFlood flood-opacity="0" result="BackgroundImageFix"/>
<feColorMatrix in="SourceAlpha" type="matrix" values="0 0 0 0 0 0 0 0 0 0 0 0 0 0 0 0 0 0 127 0" result="hardAlpha"/>
<feOffset dy="4"/>
<feGaussianBlur stdDeviation="2"/>
<feComposite in2="hardAlpha" operator="out"/>
<feColorMatrix type="matrix" values="0 0 0 0 0 0 0 0 0 0 0 0 0 0 0 0 0 0 0.25 0"/>
<feBlend mode="normal" in2="BackgroundImageFix" result="effect1_dropShadow_2_20"/>
<feBlend mode="normal" in="SourceGraphic" in2="effect1_dropShadow_2_20" result="shape"/>
</filter>
<filter id="filter4_d_2_20" x="1.3927" y="63.2904" width="10.782" height="11.9336" filterUnits="userSpaceOnUse" color-interpolation-filters="sRGB">
<feFlood flood-opacity="0" result="BackgroundImageFix"/>
<feColorMatrix in="SourceAlpha" type="matrix" values="0 0 0 0 0 0 0 0 0 0 0 0 0 0 0 0 0 0 127 0" result="hardAlpha"/>
<feOffset dy="4"/>
<feGaussianBlur stdDeviation="2"/>
<feComposite in2="hardAlpha" operator="out"/>
<feColorMatrix type="matrix" values="0 0 0 0 0 0 0 0 0 0 0 0 0 0 0 0 0 0 0.25 0"/>
<feBlend mode="normal" in2="BackgroundImageFix" result="effect1_dropShadow_2_20"/>
<feBlend mode="normal" in="SourceGraphic" in2="effect1_dropShadow_2_20" result="shape"/>
</filter>
<filter id="filter5_d_2_20" x="1.3111" y="78.5511" width="10.8143" height="12.0304" filterUnits="userSpaceOnUse" color-interpolation-filters="sRGB">
<feFlood flood-opacity="0" result="BackgroundImageFix"/>
<feColorMatrix in="SourceAlpha" type="matrix" values="0 0 0 0 0 0 0 0 0 0 0 0 0 0 0 0 0 0 127 0" result="hardAlpha"/>
<feOffset dy="4"/>
<feGaussianBlur stdDeviation="2"/>
<feComposite in2="hardAlpha" operator="out"/>
<feColorMatrix type="matrix" values="0 0 0 0 0 0 0 0 0 0 0 0 0 0 0 0 0 0 0.25 0"/>
<feBlend mode="normal" in2="BackgroundImageFix" result="effect1_dropShadow_2_20"/>
<feBlend mode="normal" in="SourceGraphic" in2="effect1_dropShadow_2_20" result="shape"/>
</filter>
<filter id="filter6_d_2_20" x="1.4014" y="95.0494" width="10.599" height="11.9228" filterUnits="userSpaceOnUse" color-interpolation-filters="sRGB">
<feFlood flood-opacity="0" result="BackgroundImageFix"/>
<feColorMatrix in="SourceAlpha" type="matrix" values="0 0 0 0 0 0 0 0 0 0 0 0 0 0 0 0 0 0 127 0" result="hardAlpha"/>
<feOffset dy="4"/>
<feGaussianBlur stdDeviation="2"/>
<feComposite in2="hardAlpha" operator="out"/>
<feColorMatrix type="matrix" values="0 0 0 0 0 0 0 0 0 0 0 0 0 0 0 0 0 0 0.25 0"/>
<feBlend mode="normal" in2="BackgroundImageFix" result="effect1_dropShadow_2_20"/>
<feBlend mode="normal" in="SourceGraphic" in2="effect1_dropShadow_2_20" result="shape"/>
</filter>
<filter id="filter7_d_2_20" x="1.23651" y="110.299" width="10.9058" height="12.0842" filterUnits="userSpaceOnUse" color-interpolation-filters="sRGB">
<feFlood flood-opacity="0" result="BackgroundImageFix"/>
<feColorMatrix in="SourceAlpha" type="matrix" values="0 0 0 0 0 0 0 0 0 0 0 0 0 0 0 0 0 0 127 0" result="hardAlpha"/>
<feOffset dy="4"/>
<feGaussianBlur stdDeviation="2"/>
<feComposite in2="hardAlpha" operator="out"/>
<feColorMatrix type="matrix" values="0 0 0 0 0 0 0 0 0 0 0 0 0 0 0 0 0 0 0.25 0"/>
<feBlend mode="normal" in2="BackgroundImageFix" result="effect1_dropShadow_2_20"/>
<feBlend mode="normal" in="SourceGraphic" in2="effect1_dropShadow_2_20" result="shape"/>
</filter>
<filter id="filter8_d_2_20" x="1.31509" y="125.894" width="10.782" height="12.0358" filterUnits="userSpaceOnUse" color-interpolation-filters="sRGB">
<feFlood flood-opacity="0" result="BackgroundImageFix"/>
<feColorMatrix in="SourceAlpha" type="matrix" values="0 0 0 0 0 0 0 0 0 0 0 0 0 0 0 0 0 0 127 0" result="hardAlpha"/>
<feOffset dy="4"/>
<feGaussianBlur stdDeviation="2"/>
<feComposite in2="hardAlpha" operator="out"/>
<feColorMatrix type="matrix" values="0 0 0 0 0 0 0 0 0 0 0 0 0 0 0 0 0 0 0.25 0"/>
<feBlend mode="normal" in2="BackgroundImageFix" result="effect1_dropShadow_2_20"/>
<feBlend mode="normal" in="SourceGraphic" in2="effect1_dropShadow_2_20" result="shape"/>
</filter>
<filter id="filter9_d_2_20" x="0.378571" y="141.24" width="13.1441" height="12.0089" filterUnits="userSpaceOnUse" color-interpolation-filters="sRGB">
<feFlood flood-opacity="0" result="BackgroundImageFix"/>
<feColorMatrix in="SourceAlpha" type="matrix" values="0 0 0 0 0 0 0 0 0 0 0 0 0 0 0 0 0 0 127 0" result="hardAlpha"/>
<feOffset dy="4"/>
<feGaussianBlur stdDeviation="2"/>
<feComposite in2="hardAlpha" operator="out"/>
<feColorMatrix type="matrix" values="0 0 0 0 0 0 0 0 0 0 0 0 0 0 0 0 0 0 0.25 0"/>
<feBlend mode="normal" in2="BackgroundImageFix" result="effect1_dropShadow_2_20"/>
<feBlend mode="normal" in="SourceGraphic" in2="effect1_dropShadow_2_20" result="shape"/>
</filter>
</defs>
</svg>
