<svg width="18" height="17" viewBox="0 0 18 17" fill="none" xmlns="http://www.w3.org/2000/svg">
<path d="M13.012 0H4C1.79086 0 0 1.79086 0 4V8.759C0 10.9681 1.79086 12.759 4 12.759H13.012C15.2211 12.759 17.012 10.9681 17.012 8.759V4C17.012 1.79086 15.2211 0 13.012 0Z" fill="#564CA3"/>
<path d="M13.1843 13.6096H3.82772C3.12306 13.6096 2.55182 14.1808 2.55182 14.8855C2.55182 15.5901 3.12306 16.1614 3.82772 16.1614H13.1843C13.889 16.1614 14.4602 15.5901 14.4602 14.8855C14.4602 14.1808 13.889 13.6096 13.1843 13.6096Z" fill="#564CA3"/>
</svg>
