<svg width="18" height="17" viewBox="0 0 18 17" fill="none" xmlns="http://www.w3.org/2000/svg">
<path d="M13.012 0H4C1.79086 0 0 1.79086 0 4V8.759C0 10.9681 1.79086 12.759 4 12.759H13.012C15.2211 12.759 17.012 10.9681 17.012 8.759V4C17.012 1.79086 15.2211 0 13.012 0Z" fill="#61C3F2"/>
<path d="M13.1843 13.6094H3.82766C3.123 13.6094 2.55176 14.1806 2.55176 14.8853C2.55176 15.59 3.123 16.1612 3.82766 16.1612H13.1843C13.8889 16.1612 14.4602 15.59 14.4602 14.8853C14.4602 14.1806 13.8889 13.6094 13.1843 13.6094Z" fill="#61C3F2"/>
</svg>
