<svg width="329" height="35" viewBox="0 0 329 35" fill="none" xmlns="http://www.w3.org/2000/svg">
<mask id="mask0_0_1" style="mask-type:alpha" maskUnits="userSpaceOnUse" x="0" y="-2" width="329" height="37">
<rect x="0.60199" y="-1.97562" width="327.844" height="36.8342" fill="#C4C4C4"/>
</mask>
<g mask="url(#mask0_0_1)">
<path d="M424.249 93.563C424.249 106.301 417.021 118.468 403.876 129.567C390.732 140.665 371.698 150.67 348.156 159.078C301.073 175.892 236.014 186.296 164.14 186.296C92.2651 186.296 27.2056 175.892 -19.8765 159.078C-43.4187 150.67 -62.453 140.665 -75.5971 129.567C-88.7424 118.468 -95.9703 106.301 -95.9703 93.563C-95.9703 80.8254 -88.7424 68.6576 -75.5971 57.5588C-62.453 46.4609 -43.4187 36.4556 -19.8765 28.0482C27.2056 11.2343 92.2651 0.82997 164.14 0.82997C236.014 0.82997 301.073 11.2343 348.156 28.0482C371.698 36.4556 390.732 46.4609 403.876 57.5588C417.021 68.6576 424.249 80.8254 424.249 93.563Z" fill="url(#paint0_linear_0_1)" fill-opacity="0.3" stroke="#61C3F2" stroke-width="0.489163"/>
<path d="M151.432 18.056C151.059 18.056 150.723 17.992 150.424 17.864C150.125 17.7307 149.891 17.544 149.72 17.304C149.549 17.064 149.464 16.784 149.464 16.464H150.44C150.461 16.704 150.555 16.9013 150.72 17.056C150.891 17.2107 151.128 17.288 151.432 17.288C151.747 17.288 151.992 17.2133 152.168 17.064C152.344 16.9093 152.432 16.712 152.432 16.472C152.432 16.2853 152.376 16.1333 152.264 16.016C152.157 15.8987 152.021 15.808 151.856 15.744C151.696 15.68 151.472 15.6107 151.184 15.536C150.821 15.44 150.525 15.344 150.296 15.248C150.072 15.1467 149.88 14.992 149.72 14.784C149.56 14.576 149.48 14.2987 149.48 13.952C149.48 13.632 149.56 13.352 149.72 13.112C149.88 12.872 150.104 12.688 150.392 12.56C150.68 12.432 151.013 12.368 151.392 12.368C151.931 12.368 152.371 12.504 152.712 12.776C153.059 13.0427 153.251 13.4107 153.288 13.88H152.28C152.264 13.6773 152.168 13.504 151.992 13.36C151.816 13.216 151.584 13.144 151.296 13.144C151.035 13.144 150.821 13.2107 150.656 13.344C150.491 13.4773 150.408 13.6693 150.408 13.92C150.408 14.0907 150.459 14.232 150.56 14.344C150.667 14.4507 150.8 14.536 150.96 14.6C151.12 14.664 151.339 14.7333 151.616 14.808C151.984 14.9093 152.283 15.0107 152.512 15.112C152.747 15.2133 152.944 15.3707 153.104 15.584C153.269 15.792 153.352 16.072 153.352 16.424C153.352 16.7067 153.275 16.9733 153.12 17.224C152.971 17.4747 152.749 17.6773 152.456 17.832C152.168 17.9813 151.827 18.056 151.432 18.056ZM154.124 15.208C154.124 14.664 154.249 14.176 154.5 13.744C154.756 13.312 155.1 12.976 155.532 12.736C155.969 12.4907 156.447 12.368 156.964 12.368C157.556 12.368 158.081 12.5147 158.54 12.808C159.004 13.096 159.34 13.5067 159.548 14.04H158.452C158.308 13.7467 158.108 13.528 157.852 13.384C157.596 13.24 157.3 13.168 156.964 13.168C156.596 13.168 156.268 13.2507 155.98 13.416C155.692 13.5813 155.465 13.8187 155.3 14.128C155.14 14.4373 155.06 14.7973 155.06 15.208C155.06 15.6187 155.14 15.9787 155.3 16.288C155.465 16.5973 155.692 16.8373 155.98 17.008C156.268 17.1733 156.596 17.256 156.964 17.256C157.3 17.256 157.596 17.184 157.852 17.04C158.108 16.896 158.308 16.6773 158.452 16.384H159.548C159.34 16.9173 159.004 17.328 158.54 17.616C158.081 17.904 157.556 18.048 156.964 18.048C156.441 18.048 155.964 17.928 155.532 17.688C155.1 17.4427 154.756 17.104 154.5 16.672C154.249 16.24 154.124 15.752 154.124 15.208ZM163.504 18L162.224 15.776H161.528V18H160.616V12.44H162.536C162.962 12.44 163.322 12.5147 163.616 12.664C163.914 12.8133 164.136 13.0133 164.28 13.264C164.429 13.5147 164.504 13.7947 164.504 14.104C164.504 14.4667 164.397 14.7973 164.184 15.096C163.976 15.3893 163.653 15.5893 163.216 15.696L164.592 18H163.504ZM161.528 15.048H162.536C162.877 15.048 163.133 14.9627 163.304 14.792C163.48 14.6213 163.568 14.392 163.568 14.104C163.568 13.816 163.482 13.592 163.312 13.432C163.141 13.2667 162.882 13.184 162.536 13.184H161.528V15.048ZM166.582 13.176V14.808H168.502V15.552H166.582V17.256H168.742V18H165.67V12.432H168.742V13.176H166.582ZM170.778 13.176V14.808H172.698V15.552H170.778V17.256H172.938V18H169.866V12.432H172.938V13.176H170.778ZM178.629 18H177.717L174.973 13.848V18H174.061V12.432H174.973L177.717 16.576V12.432H178.629V18Z" fill="#8F8F8F"/>
</g>
<defs>
<linearGradient id="paint0_linear_0_1" x1="164.14" y1="0.585388" x2="164.14" y2="26.6207" gradientUnits="userSpaceOnUse">
<stop stop-color="#61C3F2" stop-opacity="0.26"/>
<stop offset="1" stop-color="#61C3F2" stop-opacity="0"/>
</linearGradient>
</defs>
</svg>
