<svg width="18" height="17" viewBox="0 0 18 17" fill="none" xmlns="http://www.w3.org/2000/svg">
<path d="M15.012 0H2C0.89543 0 0 0.89543 0 2V10.759C0 11.8636 0.89543 12.759 2 12.759H15.012C16.1166 12.759 17.012 11.8636 17.012 10.759V2C17.012 0.89543 16.1166 0 15.012 0Z" fill="#CD9D0F"/>
<path d="M13.1843 13.6096H3.82772C3.12306 13.6096 2.55182 14.1808 2.55182 14.8855C2.55182 15.5901 3.12306 16.1614 3.82772 16.1614H13.1843C13.889 16.1614 14.4602 15.5901 14.4602 14.8855C14.4602 14.1808 13.889 13.6096 13.1843 13.6096Z" fill="#CD9D0F"/>
</svg>
